<svg width="24" height="18" viewBox="0 0 24 18" fill="none" xmlns="http://www.w3.org/2000/svg">
<path d="M23.3379 4.18125L12.8776 0.164058C12.3076 -0.0548486 11.6926 -0.0548486 11.123 0.164058L0.66236 4.18125C-0.22039 4.52015 -0.22039 5.97937 0.66236 6.31828L2.48599 7.01859C2.08586 7.63687 1.83986 8.39109 1.81548 9.21703C1.45436 9.47578 1.20011 9.94265 1.20011 10.5C1.20011 11.0053 1.41311 11.4305 1.71986 11.7023L0.762485 17.0873C0.679235 17.5556 0.964235 18 1.34786 18H3.45199C3.83598 18 4.12099 17.5556 4.03773 17.0873L3.08036 11.7023C3.38711 11.4305 3.60011 11.0053 3.60011 10.5C3.60011 9.95765 3.35748 9.5039 3.01286 9.24047C3.04136 8.5364 3.32936 7.9139 3.78873 7.51921L11.1226 10.3359C11.4624 10.4662 12.1141 10.6289 12.8772 10.3359L23.3379 6.31875C24.221 5.97937 24.221 4.52062 23.3379 4.18125ZM13.2297 11.7698C12.1599 12.1805 11.2482 11.9536 10.7701 11.7698L5.33186 9.68156L4.80011 15C4.80011 16.657 8.02361 18 12.0001 18C15.9766 18 19.2001 16.657 19.2001 15L18.6684 9.68109L13.2297 11.7698Z" fill="#4B5563"/>
</svg>
