<svg width="24" height="16" viewBox="0 0 24 16" fill="none" xmlns="http://www.w3.org/2000/svg">
<path d="M5.99996 1H6.00005H18.0025C18.0026 1 18.0026 1 18.0027 1C18.8865 1.00036 19.7642 1.27339 20.5588 1.80621C21.3547 2.33992 22.0442 3.11938 22.5572 4.08484C23.0703 5.05026 23.3875 6.16575 23.4757 7.33194C23.5639 8.49806 23.4197 9.6716 23.0584 10.7464C22.6969 11.8214 22.1319 12.7575 21.4219 13.4764C20.7125 14.1947 19.8828 14.6722 19.0107 14.8804C18.1399 15.0884 17.2415 15.0247 16.391 14.692C15.5389 14.3586 14.7529 13.7619 14.1095 12.9415L13.9594 12.75H13.7161H10.2841H10.0407L9.8906 12.9415C9.24718 13.762 8.46108 14.3588 7.60885 14.6921C6.75822 15.0248 5.85973 15.0884 4.98882 14.8803C4.11662 14.6719 3.28686 14.1943 2.57747 13.4757C1.8675 12.7565 1.30254 11.8202 0.941265 10.745C0.58005 9.66995 0.436101 8.49623 0.524544 7.33001C0.612992 6.16372 0.930548 5.04823 1.44388 4.08292C1.95723 3.11757 2.64701 2.33834 3.44316 1.80497C4.23802 1.27245 5.11598 0.999842 5.99996 1ZM15.5396 11.1248L15.9917 10.975L15.5396 11.1248C15.6787 11.5446 15.9195 11.9199 16.2462 12.1928C16.5747 12.4672 16.9761 12.625 17.4001 12.625C17.9711 12.625 18.4891 12.3407 18.8511 11.8882C19.2109 11.4385 19.4001 10.8482 19.4001 10.25C19.4001 9.80207 19.2942 9.35786 19.0882 8.9726C18.8823 8.58734 18.5795 8.26813 18.204 8.07371C17.8254 7.87771 17.3995 7.82319 16.9868 7.9258C16.5766 8.02778 16.2186 8.27476 15.949 8.61183C15.6799 8.94812 15.5052 9.36485 15.4351 9.80563C15.3649 10.2467 15.4004 10.7047 15.5396 11.1248ZM20.604 3.57371L20.3741 4.01773L20.604 3.57371C20.2254 3.37771 19.7995 3.32319 19.3868 3.4258C18.9766 3.52778 18.6186 3.77476 18.349 4.11183C18.0799 4.44812 17.9052 4.86485 17.8351 5.30563C17.7649 5.74669 17.8004 6.20465 17.9396 6.62481C18.0787 7.04461 18.3195 7.41994 18.6462 7.69276C18.9747 7.96716 19.3761 8.125 19.8001 8.125C20.3711 8.125 20.8891 7.84071 21.2511 7.38817C21.6109 6.93853 21.8001 6.34823 21.8001 5.75C21.8001 5.30207 21.6942 4.85786 21.4882 4.4726C21.2823 4.08734 20.9795 3.76813 20.604 3.57371ZM9.16825 8.96025L9.55869 9.27259C9.72148 9.0691 9.80005 8.81263 9.80005 8.5625V7.4375C9.80005 7.18737 9.72148 6.9309 9.55869 6.72741C9.39357 6.52101 9.1426 6.375 8.85005 6.375H7.40005V4.4375C7.40005 4.18737 7.32148 3.9309 7.15869 3.72741C6.99357 3.52101 6.7426 3.375 6.45005 3.375H5.55005C5.2575 3.375 5.00654 3.52101 4.84142 3.7274C4.67862 3.9309 4.60005 4.18737 4.60005 4.4375V6.375H3.15005C2.8575 6.375 2.60654 6.52101 2.44142 6.7274C2.27862 6.9309 2.20005 7.18737 2.20005 7.4375V8.5625C2.20005 8.81263 2.27862 9.0691 2.44142 9.2726C2.60654 9.47899 2.85751 9.625 3.15005 9.625H4.60005V11.5625C4.60005 11.8126 4.67862 12.0691 4.84142 12.2726C5.00654 12.479 5.2575 12.625 5.55005 12.625H6.45005C6.7426 12.625 6.99357 12.479 7.15868 12.2726C7.32149 12.0691 7.40005 11.8126 7.40005 11.5625V9.625H8.85005C9.1426 9.625 9.39357 9.47899 9.55868 9.2726L9.16825 8.96025Z" fill="white" stroke="white"/>
</svg>
