<svg width="48" height="48" viewBox="0 0 48 48" fill="none" xmlns="http://www.w3.org/2000/svg">
<path d="M23.2969 15.5625H24.7031C24.8281 15.5625 24.8906 15.625 24.8906 15.75V32.25C24.8906 32.375 24.8281 32.4375 24.7031 32.4375H23.2969C23.1719 32.4375 23.1094 32.375 23.1094 32.25V15.75C23.1094 15.625 23.1719 15.5625 23.2969 15.5625Z" fill="#9CA3AF"/>
<path d="M16.125 23.1094H31.875C32 23.1094 32.0625 23.1719 32.0625 23.2969V24.7031C32.0625 24.8281 32 24.8906 31.875 24.8906H16.125C16 24.8906 15.9375 24.8281 15.9375 24.7031V23.2969C15.9375 23.1719 16 23.1094 16.125 23.1094Z" fill="#9CA3AF"/>
</svg>
